<?xml version="1.0" standalone="no"?>
<!DOCTYPE svg PUBLIC "-//W3C//DTD SVG 20010904//EN"
 "http://www.w3.org/TR/2001/REC-SVG-20010904/DTD/svg10.dtd">
<svg version="1.0" xmlns="http://www.w3.org/2000/svg"
 width="279.000000pt" height="346.000000pt" viewBox="0 0 279.000000 346.000000"
 preserveAspectRatio="xMidYMid meet">
<metadata>
Created by potrace 1.15, written by Peter Selinger 2001-2017
</metadata>
<g transform="translate(0.000000,346.000000) scale(0.100000,-0.100000)"
fill="#000000" stroke="none">

<path d="M157 3448 c-9 -7 -21 -26 -27 -41 -6 -19 -10 -247 -10 -667 0 -595
-1 -642 -19 -698 -21 -69 -53 -118 -81 -127 -19 -6 -20 -16 -20 -156 l0 -149
25 -12 c32 -14 58 -57 79 -127 14 -48 16 -140 16 -712 0 -361 3 -670 6 -687 3
-17 15 -40 26 -51 18 -20 30 -21 203 -21 l185 0 0 165 0 165 -85 0 -85 0 0
603 c0 650 -2 672 -55 776 l-25 49 25 44 c52 94 55 126 55 751 l0 577 85 0 85
0 0 165 0 165 -183 0 c-131 0 -188 -4 -200 -12z"/>

<path d="M2260 3295 l0 -165 80 0 80 0 0 -572 c1 -618 3 -647 54 -751 l26 -54
-25 -46 c-52 -92 -55 -132 -55 -779 l0 -598 -80 0 -80 0 0 -165 0 -165 174 0
c96 0 182 3 190 6 40 15 41 26 46 749 6 788 4 762 81 828 l39 34 0 144 0 144
-28 16 c-31 17 -66 83 -82 151 -6 26 -10 296 -10 678 0 584 -1 638 -18 670
l-17 35 -187 3 -188 2 0 -165z"/>

<path d="M795 3037 c-57 -28 -111 -81 -148 -147 -51 -90 -87 -265 -87 -422 l0
-68 -80 0 -80 0 0 -65 0 -65 80 0 80 0 0 -715 0 -715 60 0 60 0 0 715 0 715
125 0 125 0 0 65 0 65 -125 0 -125 0 0 74 c0 174 64 351 147 410 118 82 271
15 325 -144 9 -26 14 -262 18 -890 l5 -855 24 -53 c26 -57 76 -108 117 -118
34 -9 159 2 207 17 41 14 43 20 26 99 -11 49 -12 52 -38 45 -14 -3 -51 -9 -81
-12 -46 -4 -59 -1 -82 16 -58 46 -58 39 -58 903 0 857 -1 882 -56 990 -30 60
-89 120 -146 150 -34 17 -64 23 -143 25 -90 4 -105 1 -150 -20z"/>

<path d="M1304 2385 c29 -76 486 -1530 486 -1546 0 -24 -94 -335 -130 -432
-25 -66 -53 -89 -110 -91 l-40 -1 0 -72 0 -73 58 0 c70 0 124 28 164 85 21 30
102 291 338 1084 170 574 310 1048 310 1053 0 5 -26 8 -57 6 l-57 -3 -201
-688 c-111 -378 -204 -685 -206 -682 -3 2 -102 313 -220 690 l-214 685 -64 0
c-52 0 -62 -3 -57 -15z"/>

</g>
</svg>
